<?xml version="1.0" encoding="UTF-8"?>
<svg version="1.1" xmlns="http://www.w3.org/2000/svg" width="189" height="42">
<path d="M0 0 C12.2316074 0.77660999 19.46690774 5.46690774 28 14 C28.66 14 29.32 14 30 14 C30 17.3 30 20.6 30 24 C25.6822792 22.9205698 25.16489969 22.60816615 23 19 C22.87625 18.360625 22.7525 17.72125 22.625 17.0625 C21.17666016 12.28297852 16.79221372 9.72286729 12.6875 7.3125 C8.52845174 5.09341049 4.61135256 3.92227051 0 3 C0 2.01 0 1.02 0 0 Z " fill="#FFF3E1" transform="translate(129,18)"/>
<path d="M0 0 C0.86625 0.020625 1.7325 0.04125 2.625 0.0625 C4.35562746 0.0625 6.08666893 0.04768709 7.81640625 -0.0078125 C8.59886719 -0.02585938 9.38132812 -0.04390625 10.1875 -0.0625 C10.97253906 -0.08570312 11.75757813 -0.10890625 12.56640625 -0.1328125 C14.625 0.0625 14.625 0.0625 16.625 2.0625 C16.955 1.4025 17.285 0.7425 17.625 0.0625 C18.264375 0.248125 18.90375 0.43375 19.5625 0.625 C20.5834375 0.8415625 20.5834375 0.8415625 21.625 1.0625 C21.955 0.7325 22.285 0.4025 22.625 0.0625 C24.29117115 0.02186168 25.95888095 0.019779 27.625 0.0625 C28.25 2.4375 28.25 2.4375 28.625 5.0625 C26.625 7.0625 26.625 7.0625 24.3125 7.25 C21.625 7.0625 21.625 7.0625 19.125 6.5 C16.33112763 6.01107233 14.35182276 6.36131701 11.625 7.0625 C11.625 5.4125 11.625 3.7625 11.625 2.0625 C9.975 2.3925 8.325 2.7225 6.625 3.0625 C6.625 3.7225 6.625 4.3825 6.625 5.0625 C7.945 5.3925 9.265 5.7225 10.625 6.0625 C9.625 7.0625 9.625 7.0625 6.68359375 7.16015625 C4.89115234 7.14275391 4.89115234 7.14275391 3.0625 7.125 C1.26619141 7.11146484 1.26619141 7.11146484 -0.56640625 7.09765625 C-1.49324219 7.08605469 -2.42007812 7.07445312 -3.375 7.0625 C-3.41754356 5.06295254 -3.41580783 3.06208364 -3.375 1.0625 C-2.375 0.0625 -2.375 0.0625 0 0 Z M-0.375 1.0625 C-0.705 2.7125 -1.035 4.3625 -1.375 6.0625 C-0.385 5.7325 0.605 5.4025 1.625 5.0625 C1.625 3.7425 1.625 2.4225 1.625 1.0625 C0.965 1.0625 0.305 1.0625 -0.375 1.0625 Z M24.625 1.0625 C23.965 2.3825 23.305 3.7025 22.625 5.0625 C23.945 5.0625 25.265 5.0625 26.625 5.0625 C26.295 3.7425 25.965 2.4225 25.625 1.0625 C25.295 1.0625 24.965 1.0625 24.625 1.0625 Z " fill="#FFF3E1" transform="translate(14.375,1.9375)"/>
<path d="M0 0 C3.3 0 6.6 0 10 0 C10.33 0.66 10.66 1.32 11 2 C11.66 1.34 12.32 0.68 13 0 C16.0390625 -0.1953125 16.0390625 -0.1953125 19.625 -0.125 C21.40777344 -0.09792969 21.40777344 -0.09792969 23.2265625 -0.0703125 C24.14179688 -0.04710938 25.05703125 -0.02390625 26 0 C26.33 1.32 26.66 2.64 27 4 C25.35 4 23.7 4 22 4 C22 4.66 22 5.32 22 6 C23.32 5.67 24.64 5.34 26 5 C26 5.66 26 6.32 26 7 C24.33388095 7.042721 22.66617115 7.04063832 21 7 C20 6 20 6 19.9375 3.4375 C19.958125 2.633125 19.97875 1.82875 20 1 C19.34 1 18.68 1 18 1 C18 2.65 18 4.3 18 6 C17.01 6.33 16.02 6.66 15 7 C15.33 5.02 15.66 3.04 16 1 C15.34 1 14.68 1 14 1 C13.566875 2.11375 13.566875 2.11375 13.125 3.25 C12.17697356 5.56739797 11.15154089 7.77917115 10 10 C8.35 10 6.7 10 5 10 C5.66 9.34 6.32 8.68 7 8 C8.24546405 5.50907189 7.7767578 4.58919267 7 2 C6.67 3.65 6.34 5.3 6 7 C5.34 7 4.68 7 4 7 C4 5.35 4 3.7 4 2 C3.34 1.67 2.68 1.34 2 1 C1.67 2.98 1.34 4.96 1 7 C0.34 7 -0.32 7 -1 7 C-0.67 4.69 -0.34 2.38 0 0 Z M23 1 C22.67 1.66 22.34 2.32 22 3 C22.99 3 23.98 3 25 3 C25 2.34 25 1.68 25 1 C24.34 1 23.68 1 23 1 Z " fill="#FFF3E1" transform="translate(104,2)"/>
<path d="M0 0 C1.5159375 0.0309375 1.5159375 0.0309375 3.0625 0.0625 C3.7225 0.0625 4.3825 0.0625 5.0625 0.0625 C7.0625 0.0625 9.0625 0.0625 11.0625 0.0625 C11.0625 0.7225 11.0625 1.3825 11.0625 2.0625 C11.7225 2.0625 12.3825 2.0625 13.0625 2.0625 C13.0625 1.4025 13.0625 0.7425 13.0625 0.0625 C15.0425 0.0625 17.0225 0.0625 19.0625 0.0625 C19.0625 1.3825 19.0625 2.7025 19.0625 4.0625 C18.0725 4.5575 18.0725 4.5575 17.0625 5.0625 C17.7225 5.0625 18.3825 5.0625 19.0625 5.0625 C19.0625 5.7225 19.0625 6.3825 19.0625 7.0625 C11.72916667 7.0625 4.39583333 7.0625 -2.9375 7.0625 C-2.9375 8.0525 -2.9375 9.0425 -2.9375 10.0625 C-3.5975 10.0625 -4.2575 10.0625 -4.9375 10.0625 C-4.79700482 8.58281676 -4.64995174 7.10375484 -4.5 5.625 C-4.41878906 4.80128906 -4.33757813 3.97757813 -4.25390625 3.12890625 C-3.75361621 -0.13842008 -3.40723479 0.07249436 0 0 Z M-0.9375 1.0625 C-1.2675 2.3825 -1.5975 3.7025 -1.9375 5.0625 C-0.9475 5.0625 0.0425 5.0625 1.0625 5.0625 C1.0625 3.7425 1.0625 2.4225 1.0625 1.0625 C0.4025 1.0625 -0.2575 1.0625 -0.9375 1.0625 Z M7.0625 1.0625 C6.7325 2.3825 6.4025 3.7025 6.0625 5.0625 C7.0525 5.0625 8.0425 5.0625 9.0625 5.0625 C9.0625 3.7425 9.0625 2.4225 9.0625 1.0625 C8.4025 1.0625 7.7425 1.0625 7.0625 1.0625 Z M15.0625 1.0625 C14.7325 1.7225 14.4025 2.3825 14.0625 3.0625 C15.0525 3.0625 16.0425 3.0625 17.0625 3.0625 C17.0625 2.4025 17.0625 1.7425 17.0625 1.0625 C16.4025 1.0625 15.7425 1.0625 15.0625 1.0625 Z " fill="#FFF3E1" transform="translate(32.9375,17.9375)"/>
<path d="M0 0 C6.33333333 0 12.66666667 0 19 0 C19.33 1.32 19.66 2.64 20 4 C18.35 4 16.7 4 15 4 C15 4.66 15 5.32 15 6 C16.32 5.67 17.64 5.34 19 5 C19 5.66 19 6.32 19 7 C17.02 7 15.04 7 13 7 C13 5.02 13 3.04 13 1 C12.34 1 11.68 1 11 1 C11 2.65 11 4.3 11 6 C10.01 6.33 9.02 6.66 8 7 C8.33 5.02 8.66 3.04 9 1 C8.01 1.495 8.01 1.495 7 2 C6.34444881 4.52733235 6.34444881 4.52733235 6 7 C5.01 6.67 4.02 6.34 3 6 C0.85744207 6.38932856 0.85744207 6.38932856 -1 7 C-1.04254356 5.00045254 -1.04080783 2.99958364 -1 1 C-0.67 0.67 -0.34 0.34 0 0 Z M16 1 C15.67 1.66 15.34 2.32 15 3 C15.99 2.67 16.98 2.34 18 2 C17.34 1.67 16.68 1.34 16 1 Z " fill="#FFF3E1" transform="translate(59,2)"/>
<path d="M0 0 C5.66666667 0 11.33333333 0 17 0 C17 2.97 17 5.94 17 9 C16.34 9 15.68 9 15 9 C15 8.34 15 7.68 15 7 C12.69 7.66 10.38 8.32 8 9 C7.34 8.01 6.68 7.02 6 6 C5.1028125 6.2784375 5.1028125 6.2784375 4.1875 6.5625 C2 7 2 7 -1 6 C-0.835 5.195625 -0.67 4.39125 -0.5 3.5625 C0.03191839 1.2715557 0.03191839 1.2715557 0 0 Z M10 1 C9.34 2.32 8.68 3.64 8 5 C8.99 5.495 8.99 5.495 10 6 C10.33 4.35 10.66 2.7 11 1 C10.67 1 10.34 1 10 1 Z M13 1 C12.67 2.65 12.34 4.3 12 6 C12.66 6 13.32 6 14 6 C14.33 4.35 14.66 2.7 15 1 C14.34 1 13.68 1 13 1 Z " fill="#FFF3E1" transform="translate(83,18)"/>
<path d="M0 0 C1.175625 0.020625 2.35125 0.04125 3.5625 0.0625 C4.2225 0.0625 4.8825 0.0625 5.5625 0.0625 C7.22916667 0.0625 8.89583333 0.0625 10.5625 0.0625 C10.8925 0.7225 11.2225 1.3825 11.5625 2.0625 C9.9125 2.3925 8.2625 2.7225 6.5625 3.0625 C6.5625 3.7225 6.5625 4.3825 6.5625 5.0625 C7.8825 5.3925 9.2025 5.7225 10.5625 6.0625 C9.5625 7.0625 9.5625 7.0625 7.125 7.125 C5.8565625 7.0940625 5.8565625 7.0940625 4.5625 7.0625 C2.8748714 7.0625 1.18727726 7.09056577 -0.5 7.125 C-3.4375 7.0625 -3.4375 7.0625 -4.4375 6.0625 C-4.5625 3.5625 -4.5625 3.5625 -4.4375 1.0625 C-3.4375 0.0625 -3.4375 0.0625 0 0 Z M-1.4375 1.0625 C-1.7675 2.7125 -2.0975 4.3625 -2.4375 6.0625 C-1.4475 5.7325 -0.4575 5.4025 0.5625 5.0625 C0.5625 3.7425 0.5625 2.4225 0.5625 1.0625 C-0.0975 1.0625 -0.7575 1.0625 -1.4375 1.0625 Z " fill="#FFF3E1" transform="translate(68.4375,17.9375)"/>
<path d="M0 0 C4.29 0 8.58 0 13 0 C14 5 14 5 13 7 C11.35 7 9.7 7 8 7 C7.67 7.99 7.34 8.98 7 10 C6.34 9.67 5.68 9.34 5 9 C5.66 6.36 6.32 3.72 7 1 C6.01 1 5.02 1 4 1 C4 2.65 4 4.3 4 6 C3.01 6.33 2.02 6.66 1 7 C1.33 5.02 1.66 3.04 2 1 C1.34 0.67 0.68 0.34 0 0 Z M10 1 C9.34 2.32 8.68 3.64 8 5 C9.32 5 10.64 5 12 5 C11.67 3.68 11.34 2.36 11 1 C10.67 1 10.34 1 10 1 Z " fill="#FFF3E1" transform="translate(43,2)"/>
<path d="M0 0 C4.29 0 8.58 0 13 0 C12.01 0.33 11.02 0.66 10 1 C10 2.98 10 4.96 10 7 C9.01 6.67 8.02 6.34 7 6 C7.33 4.35 7.66 2.7 8 1 C7.34 1 6.68 1 6 1 C6 1.99 6 2.98 6 4 C5.01 4.495 5.01 4.495 4 5 C4.66 5 5.32 5 6 5 C6 5.66 6 6.32 6 7 C4.02 7 2.04 7 0 7 C-1.125 2.25 -1.125 2.25 0 0 Z M2 1 C1.67 1.66 1.34 2.32 1 3 C1.99 3 2.98 3 4 3 C4 2.34 4 1.68 4 1 C3.34 1 2.68 1 2 1 Z " fill="#FFF3E1" transform="translate(102,18)"/>
<path d="M0 0 C1.97909398 -0.02686553 3.95828971 -0.04633375 5.9375 -0.0625 C7.03964844 -0.07410156 8.14179688 -0.08570312 9.27734375 -0.09765625 C12 0 12 0 13 1 C13.125 3.5 13.125 3.5 13 6 C12 7 12 7 8.9375 7.0625 C7.968125 7.041875 6.99875 7.02125 6 7 C6 5.02 6 3.04 6 1 C5.34 1 4.68 1 4 1 C4 2.65 4 4.3 4 6 C3.01 6.33 2.02 6.66 1 7 C1.33 5.02 1.66 3.04 2 1 C1.34 0.67 0.68 0.34 0 0 Z M9 1 C8.67 2.65 8.34 4.3 8 6 C8.99 5.67 9.98 5.34 11 5 C11 3.68 11 2.36 11 1 C10.34 1 9.68 1 9 1 Z " fill="#FFF3E1" transform="translate(15,18)"/>
<path d="M0 0 C1.65322266 0.01740234 1.65322266 0.01740234 3.33984375 0.03515625 C4.99693359 0.04869141 4.99693359 0.04869141 6.6875 0.0625 C7.54214844 0.07410156 8.39679688 0.08570312 9.27734375 0.09765625 C8.28734375 0.59265625 8.28734375 0.59265625 7.27734375 1.09765625 C6.61961947 4.12700116 6.61961947 4.12700116 6.27734375 7.09765625 C5.61734375 7.09765625 4.95734375 7.09765625 4.27734375 7.09765625 C4.27734375 5.44765625 4.27734375 3.79765625 4.27734375 2.09765625 C2.62734375 2.09765625 0.97734375 2.09765625 -0.72265625 2.09765625 C-1.05265625 3.41765625 -1.38265625 4.73765625 -1.72265625 6.09765625 C-0.40265625 5.76765625 0.91734375 5.43765625 2.27734375 5.09765625 C2.27734375 5.75765625 2.27734375 6.41765625 2.27734375 7.09765625 C0.29734375 7.09765625 -1.68265625 7.09765625 -3.72265625 7.09765625 C-3.76519981 5.09810879 -3.76346408 3.09723989 -3.72265625 1.09765625 C-2.72265625 0.09765625 -2.72265625 0.09765625 0 0 Z " fill="#FFF3E1" transform="translate(154.72265625,1.90234375)"/>
<path d="M0 0 C0.66 0 1.32 0 2 0 C1.67 1.98 1.34 3.96 1 6 C1.66 6 2.32 6 3 6 C3 4.35 3 2.7 3 1 C3.99 1 4.98 1 6 1 C5.67 2.65 5.34 4.3 5 6 C5.66 6 6.32 6 7 6 C7 4.35 7 2.7 7 1 C7.99 1 8.98 1 10 1 C9.34 2.98 8.68 4.96 8 7 C5.03 7 2.06 7 -1 7 C-1.04254356 5.00045254 -1.04080783 2.99958364 -1 1 C-0.67 0.67 -0.34 0.34 0 0 Z " fill="#FFF3E1" transform="translate(133,2)"/>
<path d="M0 0 C2.64 0 5.28 0 8 0 C7.67 2.97 7.34 5.94 7 9 C6.34 9 5.68 9 5 9 C5.33 6.36 5.66 3.72 6 1 C4.68 1 3.36 1 2 1 C1.67 3.64 1.34 6.28 1 9 C0.01 8.67 -0.98 8.34 -2 8 C-1.34 5.36 -0.68 2.72 0 0 Z " fill="#FFF3E1" transform="translate(2,0)"/>
<path d="M0 0 C0.66 0 1.32 0 2 0 C2.33 0.66 2.66 1.32 3 2 C4.32 1.34 5.64 0.68 7 0 C6.67 2.31 6.34 4.62 6 7 C3.66666667 7 1.33333333 7 -1 7 C-0.67 4.69 -0.34 2.38 0 0 Z " fill="#FFF3E1" transform="translate(172,2)"/>
<path d="M0 0 C1.98 0 3.96 0 6 0 C6 2.31 6 4.62 6 7 C3.69 7 1.38 7 -1 7 C-0.67 4.69 -0.34 2.38 0 0 Z M2 1 C2 1.66 2 2.32 2 3 C2.66 3 3.32 3 4 3 C4 2.34 4 1.68 4 1 C3.34 1 2.68 1 2 1 Z M2 4 C2 4.66 2 5.32 2 6 C2.66 6 3.32 6 4 6 C4 5.34 4 4.68 4 4 C3.34 4 2.68 4 2 4 Z " fill="#FFF3E1" transform="translate(57,18)"/>
<path d="M0 0 C2.31 0 4.62 0 7 0 C6.67 2.31 6.34 4.62 6 7 C4.02 7 2.04 7 0 7 C-1.125 2.25 -1.125 2.25 0 0 Z M2 1 C1.67 2.32 1.34 3.64 1 5 C1.99 5 2.98 5 4 5 C4 3.68 4 2.36 4 1 C3.34 1 2.68 1 2 1 Z " fill="#FFF3E1" transform="translate(92,2)"/>
<path d="M0 0 C1.2065625 0.0309375 1.2065625 0.0309375 2.4375 0.0625 C3.48199911 3.19599732 3.37173645 4.05218256 2.4375 7.0625 C0.4575 7.0625 -1.5225 7.0625 -3.5625 7.0625 C-3.60504356 5.06295254 -3.60330783 3.06208364 -3.5625 1.0625 C-2.5625 0.0625 -2.5625 0.0625 0 0 Z M-0.5625 1.0625 C-0.8925 1.7225 -1.2225 2.3825 -1.5625 3.0625 C-0.5725 2.7325 0.4175 2.4025 1.4375 2.0625 C0.7775 1.7325 0.1175 1.4025 -0.5625 1.0625 Z M-1.5625 4.0625 C-1.5625 4.7225 -1.5625 5.3825 -1.5625 6.0625 C-0.9025 6.0625 -0.2425 6.0625 0.4375 6.0625 C0.4375 5.4025 0.4375 4.7425 0.4375 4.0625 C-0.2225 4.0625 -0.8825 4.0625 -1.5625 4.0625 Z " fill="#FFF3E1" transform="translate(167.5625,1.9375)"/>
<path d="M0 0 C0.78375 0.04125 1.5675 0.0825 2.375 0.125 C3 2.5 3 2.5 3.375 5.125 C1.375 7.125 1.375 7.125 -1.25 7.25 C-2.03375 7.20875 -2.8175 7.1675 -3.625 7.125 C-4.25 4.75 -4.25 4.75 -4.625 2.125 C-2.625 0.125 -2.625 0.125 0 0 Z M-0.625 1.125 C-1.285 2.445 -1.945 3.765 -2.625 5.125 C-1.305 5.125 0.015 5.125 1.375 5.125 C1.045 3.805 0.715 2.485 0.375 1.125 C0.045 1.125 -0.285 1.125 -0.625 1.125 Z " fill="#FFF3E1" transform="translate(11.625,17.875)"/>
<path d="M0 0 C2.31 0 4.62 0 7 0 C6.649375 0.598125 6.29875 1.19625 5.9375 1.8125 C4.66695302 4.10813214 4.66695302 4.10813214 6 7 C5.401875 6.814375 4.80375 6.62875 4.1875 6.4375 C1.83591238 5.77906313 1.83591238 5.77906313 -1 7 C-0.67 4.69 -0.34 2.38 0 0 Z M2 1 C3 3 3 3 3 3 Z " fill="#FFF3E1" transform="translate(1,18)"/>
<path d="M0 0 C1.2065625 0.0309375 1.2065625 0.0309375 2.4375 0.0625 C2.7675 1.3825 3.0975 2.7025 3.4375 4.0625 C1.7875 4.0625 0.1375 4.0625 -1.5625 4.0625 C-1.5625 4.7225 -1.5625 5.3825 -1.5625 6.0625 C-0.2425 5.7325 1.0775 5.4025 2.4375 5.0625 C2.4375 5.7225 2.4375 6.3825 2.4375 7.0625 C0.4575 7.0625 -1.5225 7.0625 -3.5625 7.0625 C-3.60504356 5.06295254 -3.60330783 3.06208364 -3.5625 1.0625 C-2.5625 0.0625 -2.5625 0.0625 0 0 Z M-0.5625 1.0625 C-0.8925 1.7225 -1.2225 2.3825 -1.5625 3.0625 C-0.5725 2.7325 0.4175 2.4025 1.4375 2.0625 C0.7775 1.7325 0.1175 1.4025 -0.5625 1.0625 Z " fill="#FFF3E1" transform="translate(183.5625,1.9375)"/>
<path d="M0 0 C0.66 0 1.32 0 2 0 C2 0.66 2 1.32 2 2 C2.66 2.33 3.32 2.66 4 3 C4 2.01 4 1.02 4 0 C4.99 0.33 5.98 0.66 7 1 C6.34 2.98 5.68 4.96 5 7 C4.34 6.67 3.68 6.34 3 6 C3.33 5.34 3.66 4.68 4 4 C3.01 4 2.02 4 1 4 C1 4.99 1 5.98 1 7 C0.34 7 -0.32 7 -1 7 C-1.04254356 5.00045254 -1.04080783 2.99958364 -1 1 C-0.67 0.67 -0.34 0.34 0 0 Z " fill="#FFF3E1" transform="translate(84,2)"/>
<path d="M0 0 C1.2065625 0.0309375 1.2065625 0.0309375 2.4375 0.0625 C2.7675 1.3825 3.0975 2.7025 3.4375 4.0625 C1.7875 4.0625 0.1375 4.0625 -1.5625 4.0625 C-1.5625 4.7225 -1.5625 5.3825 -1.5625 6.0625 C-0.2425 5.7325 1.0775 5.4025 2.4375 5.0625 C2.4375 5.7225 2.4375 6.3825 2.4375 7.0625 C0.77138095 7.105221 -0.89632885 7.10313832 -2.5625 7.0625 C-3.5625 6.0625 -3.5625 6.0625 -3.6875 3.5625 C-3.51717518 0.15600356 -3.41884482 0.08338646 0 0 Z M-0.5625 1.0625 C-0.8925 1.7225 -1.2225 2.3825 -1.5625 3.0625 C-0.5725 3.0625 0.4175 3.0625 1.4375 3.0625 C1.4375 2.4025 1.4375 1.7425 1.4375 1.0625 C0.7775 1.0625 0.1175 1.0625 -0.5625 1.0625 Z " fill="#FFF3E1" transform="translate(146.5625,1.9375)"/>
<path d="M0 0 C0.66 0 1.32 0 2 0 C1.67 1.32 1.34 2.64 1 4 C0.34 3.67 -0.32 3.34 -1 3 C-0.67 2.01 -0.34 1.02 0 0 Z " fill="#FFF3E1" transform="translate(187,7)"/>
</svg>
